<svg width="24" height="24" viewBox="0 0 24 24" fill="none" xmlns="http://www.w3.org/2000/svg">
<mask id="mask0_2708_19527" style="mask-type:alpha" maskUnits="userSpaceOnUse" x="0" y="0" width="24" height="24">
<rect width="24" height="24" fill="#D9D9D9"/>
</mask>
<g mask="url(#mask0_2708_19527)">
<path d="M9 14C9.55228 14 10 14.4477 10 15L10 19C10 19.5523 9.55228 20 9 20C8.44772 20 8 19.5523 8 19L8 16L5 16C4.44771 16 4 15.5523 4 15C4 14.4477 4.44771 14 5 14L9 14Z" fill="#1C1B1F"/>
<path d="M16 8L16 5C16 4.44772 15.5523 4 15 4C14.4477 4 14 4.44772 14 5L14 9C14 9.55229 14.4477 10 15 10L19 10C19.5523 10 20 9.55228 20 9C20 8.44772 19.5523 8 19 8L16 8Z" fill="#1C1B1F"/>
</g>
</svg>
