<svg width="100%" height="100%" overflow="visible" style="display: block;" viewBox="0 0 24 24" fill="none" xmlns="http://www.w3.org/2000/svg">
<g id="edit">
<mask id="mask0_0_172" style="mask-type:alpha" maskUnits="userSpaceOnUse" x="0" y="0" width="24" height="24">
<rect id="Bounding box" width="24" height="24" fill="white"/>
</mask>
<g mask="url(#mask0_0_172)">
<path id="edit_2" d="M5.4 18.6H6.675L16.05 9.225L14.775 7.95L5.4 17.325V18.6ZM4.8 20.4C4.13726 20.4 3.6 19.8627 3.6 19.2V17.0721C3.6 16.7538 3.72643 16.4486 3.95147 16.2235L16.05 4.125C16.2333 3.94167 16.432 3.80833 16.646 3.725C16.8598 3.64167 17.0848 3.6 17.321 3.6C17.557 3.6 17.7833 3.64167 18 3.725C18.2167 3.80833 18.4167 3.94167 18.6 4.125L19.875 5.4C20.0583 5.58333 20.1917 5.78333 20.275 6C20.3583 6.21667 20.4 6.43783 20.4 6.6635C20.4 6.90433 20.3582 7.13383 20.2745 7.352C20.1908 7.57017 20.0577 7.7695 19.875 7.95L7.77647 20.0485C7.55143 20.2736 7.2462 20.4 6.92794 20.4H4.8ZM15.4012 8.59875L14.775 7.95L16.05 9.225L15.4012 8.59875Z" fill="currentColor"/>
</g>
</g>
</svg>
