<svg width="24" height="24" viewBox="0 0 24 24" fill="none" xmlns="http://www.w3.org/2000/svg">
<mask id="mask0_2708_19526" style="mask-type:alpha" maskUnits="userSpaceOnUse" x="0" y="0" width="24" height="24">
<rect width="24" height="24" fill="white"/>
</mask>
<g mask="url(#mask0_2708_19526)">
<path d="M6 18.9999C5.44772 18.9999 5 18.5522 5 17.9999V13.9999C5 13.4476 5.44772 12.9999 6 12.9999C6.55228 12.9999 7 13.4476 7 13.9999V16.9999H10C10.5523 16.9999 11 17.4476 11 17.9999C11 18.5522 10.5523 18.9999 10 18.9999H6ZM18 10.9999C17.4477 10.9999 17 10.5522 17 9.99988V6.99988H14C13.4477 6.99988 13 6.55216 13 5.99988C13 5.44759 13.4477 4.99988 14 4.99988H18C18.5523 4.99988 19 5.44759 19 5.99988V9.99988C19 10.5522 18.5523 10.9999 18 10.9999Z" fill="currentColor"/>
</g>
</svg>
