<svg width="24" height="24" viewBox="0 0 24 24" fill="none" xmlns="http://www.w3.org/2000/svg">
<g transform="translate(1.6528 3)">
<path d="M2.34706 1L18.3471 17M14.8471 13.7559C13.4945 14.4845 11.9657 14.9999 10.3471 14.9999C6.81641 14.9999 3.71341 12.5478 1.93397 10.7788C1.46427 10.3119 1.22945 10.0784 1.07997 9.62012C0.97336 9.29328 0.973327 8.70657 1.07997 8.37974C1.2295 7.92147 1.4648 7.68745 1.93544 7.21967C2.83232 6.32821 4.06518 5.26359 5.51936 4.42676M17.8471 11.6335C18.1801 11.3405 18.4851 11.0523 18.7589 10.7803L18.7617 10.7772C19.2304 10.3114 19.4654 10.0779 19.6146 9.62061C19.7212 9.29378 19.721 8.70684 19.6144 8.38C19.4649 7.92187 19.2298 7.68775 18.7604 7.22111C16.981 5.45208 13.8777 3 10.3471 3C10.0096 3 9.67597 3.02241 9.34706 3.06448M11.67 10.5C11.3174 10.8112 10.8543 11 10.3471 11C9.24249 11 8.34706 10.1046 8.34706 9C8.34706 8.4605 8.56067 7.97108 8.90794 7.61133" stroke="currentColor" stroke-width="2" stroke-linecap="round" stroke-linejoin="round"/>
</g>
</svg>
