<svg width="24" height="24" viewBox="0 0 24 24" fill="none" xmlns="http://www.w3.org/2000/svg">
<mask id="mask0_2708_19529" style="mask-type:alpha" maskUnits="userSpaceOnUse" x="0" y="0" width="24" height="24">
<rect width="24" height="24" fill="#D9D9D9"/>
</mask>
<g mask="url(#mask0_2708_19529)">
<path d="M8 19C7.44771 19 7 18.5523 7 18C7 17.4477 7.44772 17 8 17H14.1C15.15 17 16.0625 16.6667 16.8375 16C17.6125 15.3333 18 14.5 18 13.5C18 12.5 17.6125 11.6667 16.8375 11C16.0625 10.3333 15.15 10 14.1 10H7.8L9.7 11.9C10.0866 12.2866 10.0866 12.9134 9.7 13.3C9.3134 13.6866 8.6866 13.6866 8.3 13.3L4.70711 9.70711C4.31658 9.31658 4.31658 8.68342 4.70711 8.29289L8.3 4.7C8.6866 4.3134 9.3134 4.3134 9.7 4.7C10.0866 5.0866 10.0866 5.7134 9.7 6.1L7.8 8H14.1C15.7167 8 17.1042 8.525 18.2625 9.575C19.4208 10.625 20 11.9333 20 13.5C20 15.0667 19.4208 16.375 18.2625 17.425C17.1042 18.475 15.7167 19 14.1 19H8Z" fill="#1C1B1F"/>
</g>
</svg>
